# Blender v2.76 (sub 0) OBJ File: ''
# www.blender.org
mtllib cue.mtl
o Cone001_Untitled.001
v 0.752559 0.005000 -0.000000
v 0.752559 0.002500 -0.004330
v 0.752559 -0.002500 -0.004330
v 0.752559 -0.005000 0.000000
v 0.752559 -0.002500 0.004330
v 0.752559 0.002500 0.004330
v 0.452559 0.008000 -0.000000
v 0.452559 0.004000 -0.006928
v 0.452559 -0.004000 -0.006928
v 0.452559 -0.008000 0.000000
v 0.452559 -0.004000 0.006928
v 0.452559 0.004000 0.006928
v 0.152559 0.011000 0.000000
v 0.152559 0.005500 -0.009526
v 0.152559 -0.005500 -0.009526
v 0.152559 -0.011000 0.000000
v 0.152559 -0.005500 0.009526
v 0.152559 0.005500 0.009526
v -0.147441 0.014000 0.000000
v -0.147441 0.007000 -0.012124
v -0.147441 -0.007000 -0.012124
v -0.147441 -0.014000 0.000000
v -0.147441 -0.007000 0.012124
v -0.147441 0.007000 0.012124
v -0.447441 0.017000 0.000000
v -0.447441 0.008500 -0.014722
v -0.447441 -0.008500 -0.014722
v -0.447441 -0.017000 0.000000
v -0.447441 -0.008500 0.014722
v -0.447441 0.008500 0.014722
v -0.747441 0.020000 0.000000
v -0.747441 0.010000 -0.017321
v -0.747441 -0.010000 -0.017321
v -0.747441 -0.020000 0.000000
v -0.747441 -0.010000 0.017321
v -0.747441 0.010000 0.017321
v -0.754012 0.013585 0.000000
v -0.754012 0.006793 -0.011765
v -0.754012 -0.006792 -0.011765
v -0.754012 -0.013584 0.000000
v -0.754012 -0.006792 0.011765
v -0.754012 0.006793 0.011765
v 0.754012 0.001629 -0.002822
v 0.754012 0.003259 -0.000000
v 0.754012 0.001629 0.002822
v 0.754012 -0.001629 0.002822
v 0.754012 -0.003259 0.000000
v 0.754012 -0.001629 -0.002822
vt 0.013731 0.436070
vt 0.013731 0.416849
vt 0.206072 0.405316
vt 0.206072 0.436070
vt 0.013731 0.640745
vt 0.013731 0.618550
vt 0.206072 0.611892
vt 0.206072 0.647403
vt 0.013731 0.229219
vt 0.013731 0.209997
vt 0.206072 0.209997
vt 0.206072 0.240751
vt 0.013731 0.190776
vt 0.206072 0.179243
vt 0.013731 0.801827
vt 0.013731 0.779632
vt 0.206072 0.772974
vt 0.206072 0.808485
vt 0.013731 0.455291
vt 0.206072 0.466824
vt 0.398414 0.393783
vt 0.398414 0.436070
vt 0.398414 0.605233
vt 0.398414 0.654062
vt 0.398414 0.209997
vt 0.398414 0.252284
vt 0.398414 0.167711
vt 0.398414 0.766315
vt 0.398414 0.815144
vt 0.398414 0.478357
vt 0.590756 0.382251
vt 0.590756 0.436070
vt 0.590756 0.598575
vt 0.590756 0.660720
vt 0.590756 0.209997
vt 0.590756 0.263817
vt 0.590756 0.156178
vt 0.590756 0.759657
vt 0.590756 0.821802
vt 0.590756 0.489890
vt 0.783098 0.370718
vt 0.783098 0.436070
vt 0.783098 0.591916
vt 0.783098 0.667379
vt 0.783098 0.209997
vt 0.783098 0.275350
vt 0.783098 0.144645
vt 0.783098 0.752998
vt 0.783098 0.828461
vt 0.783098 0.501422
vt 0.975440 0.359185
vt 0.975440 0.436070
vt 0.975440 0.585258
vt 0.975440 0.674037
vt 0.975440 0.209997
vt 0.975440 0.286882
vt 0.975440 0.133112
vt 0.975440 0.746340
vt 0.975440 0.835119
vt 0.975440 0.512955
vt 0.097141 0.725289
vt 0.098206 0.728562
vt 0.097141 0.731836
vt 0.095011 0.731836
vt 0.093946 0.728562
vt 0.095011 0.725289
vt 0.057413 0.716561
vt 0.066290 0.716561
vt 0.070729 0.730207
vt 0.066290 0.743853
vt 0.057413 0.743853
vt 0.052974 0.730207
vt 0.063067 0.737941
vt 0.050769 0.730084
vt 0.054646 0.721953
vt 0.062999 0.727290
vt 0.979652 0.599497
vt 0.979652 0.659798
vt 0.051364 0.728795
vt 0.063488 0.720128
vt 0.063644 0.730777
vt 0.055409 0.736664
vt 0.072280 0.727827
vt 0.069616 0.736006
vt 0.979652 0.760579
vt 0.979652 0.820880
vt 0.071691 0.729665
vt 0.068857 0.721668
vt 0.094442 0.733585
vt 0.092808 0.728562
vt 0.094442 0.723539
vt 0.097710 0.723539
vt 0.099344 0.728562
vt 0.097710 0.733585
vn 0.383800 0.923400 0.000000
vn 0.383800 0.461700 -0.799700
vn 0.010000 0.500000 -0.866000
vn 0.010000 1.000000 0.000000
vn 0.383800 -0.461700 -0.799700
vn 0.010000 -0.500000 -0.866000
vn 0.383900 -0.923400 0.000000
vn 0.010000 -1.000000 -0.000000
vn 0.383800 -0.461700 0.799700
vn 0.010000 -0.500000 0.866000
vn 0.383800 0.461700 0.799700
vn 0.010000 0.500000 0.866000
vn 0.010000 0.999900 -0.000000
vn -0.336100 0.470900 -0.815700
vn -0.336100 0.941800 -0.000000
vn -0.336100 -0.470900 -0.815700
vn -0.336100 -0.941800 -0.000000
vn -0.336100 -0.470900 0.815700
vn -0.336100 0.470900 0.815700
vn 0.901700 -0.216200 0.374400
vn 0.901700 -0.432300 0.000000
vn 0.901700 -0.216200 -0.374400
vn 0.901700 0.216100 -0.374400
vn 0.901700 0.432300 -0.000000
vn 0.901700 0.216200 0.374400
vn -0.873900 0.243000 -0.421000
vn -0.873900 -0.243000 -0.421000
vn -0.873900 -0.486100 -0.000000
vn -0.873900 -0.243000 0.421000
vn -0.873900 0.243000 0.421000
vn -0.873900 0.486100 0.000000
usemtl 01_-_Default.001
s 1
f 1/1/1 2/2/2 8/3/3
f 8/3/3 7/4/4 1/1/1
f 2/5/2 3/6/5 9/7/6
f 9/7/6 8/8/3 2/5/2
f 3/9/5 4/10/7 10/11/8
f 10/11/8 9/12/6 3/9/5
f 4/10/7 5/13/9 11/14/10
f 11/14/10 10/11/8 4/10/7
f 5/15/9 6/16/11 12/17/12
f 12/17/12 11/18/10 5/15/9
f 6/19/11 1/1/1 7/4/4
f 7/4/4 12/20/12 6/19/11
f 7/4/4 8/3/3 14/21/3
f 14/21/3 13/22/4 7/4/4
f 8/8/3 9/7/6 15/23/6
f 15/23/6 14/24/3 8/8/3
f 9/12/6 10/11/8 16/25/8
f 16/25/8 15/26/6 9/12/6
f 10/11/8 11/14/10 17/27/10
f 17/27/10 16/25/8 10/11/8
f 11/18/10 12/17/12 18/28/12
f 18/28/12 17/29/10 11/18/10
f 12/20/12 7/4/4 13/22/4
f 13/22/4 18/30/12 12/20/12
f 13/22/4 14/21/3 20/31/3
f 20/31/3 19/32/13 13/22/4
f 14/24/3 15/23/6 21/33/6
f 21/33/6 20/34/3 14/24/3
f 15/26/6 16/25/8 22/35/8
f 22/35/8 21/36/6 15/26/6
f 16/25/8 17/27/10 23/37/10
f 23/37/10 22/35/8 16/25/8
f 17/29/10 18/28/12 24/38/12
f 24/38/12 23/39/10 17/29/10
f 18/30/12 13/22/4 19/32/13
f 19/32/13 24/40/12 18/30/12
f 19/32/13 20/31/3 26/41/3
f 26/41/3 25/42/4 19/32/13
f 20/34/3 21/33/6 27/43/6
f 27/43/6 26/44/3 20/34/3
f 21/36/6 22/35/8 28/45/8
f 28/45/8 27/46/6 21/36/6
f 22/35/8 23/37/10 29/47/10
f 29/47/10 28/45/8 22/35/8
f 23/39/10 24/38/12 30/48/12
f 30/48/12 29/49/10 23/39/10
f 24/40/12 19/32/13 25/42/4
f 25/42/4 30/50/12 24/40/12
f 25/42/4 26/41/3 32/51/14
f 32/51/14 31/52/15 25/42/4
f 26/44/3 27/43/6 33/53/16
f 33/53/16 32/54/14 26/44/3
f 27/46/6 28/45/8 34/55/17
f 34/55/17 33/56/16 27/46/6
f 28/45/8 29/47/10 35/57/18
f 35/57/18 34/55/17 28/45/8
f 29/49/10 30/48/12 36/58/19
f 36/58/19 35/59/18 29/49/10
f 30/50/12 25/42/4 31/52/15
f 31/52/15 36/60/19 30/50/12
f 46/61/20 47/62/21 48/63/22
f 48/63/22 43/64/23 44/65/24
f 46/61/20 48/63/22 44/65/24
f 45/66/25 46/61/20 44/65/24
f 38/67/26 39/68/27 40/69/28
f 40/69/28 41/70/29 42/71/30
f 38/67/26 40/69/28 42/71/30
f 37/72/31 38/67/26 42/71/30
f 31/73/15 32/74/14 38/75/26
f 38/75/26 37/76/31 31/73/15
f 32/54/14 33/53/16 39/77/27
f 39/77/27 38/78/26 32/54/14
f 33/79/16 34/80/17 40/81/28
f 40/81/28 39/82/27 33/79/16
f 34/80/17 35/83/18 41/84/29
f 41/84/29 40/81/28 34/80/17
f 35/59/18 36/58/19 42/85/30
f 42/85/30 41/86/29 35/59/18
f 36/87/19 31/73/15 37/76/31
f 37/76/31 42/88/30 36/87/19
f 2/89/2 1/90/1 44/65/24
f 44/65/24 43/64/23 2/89/2
f 1/90/1 6/91/11 45/66/25
f 45/66/25 44/65/24 1/90/1
f 6/91/11 5/92/9 46/61/20
f 46/61/20 45/66/25 6/91/11
f 5/92/9 4/93/7 47/62/21
f 47/62/21 46/61/20 5/92/9
f 4/93/7 3/94/5 48/63/22
f 48/63/22 47/62/21 4/93/7
f 3/94/5 2/89/2 43/64/23
f 43/64/23 48/63/22 3/94/5
